<?xml version="1.0" encoding="UTF-8"?>
<svg id="Layer_2" data-name="Layer 2" xmlns="http://www.w3.org/2000/svg" viewBox="0 0 48 48">
  <defs>
    <style>
      .cls-1 {
        fill: #fff;
      }

      .cls-2 {
        fill: #ee1a00;
      }
    </style>
  </defs>
  <g id="work">
    <g>
      <circle class="cls-2" cx="24" cy="24" r="24"/>
      <path class="cls-1" d="m29.76,36.38h-3.5c-1.42-.7-2.48-2.12-2.59-3.74-.19-1.86.96-3.68,2.6-4.42.27-.13.56-.22.86-.27.62-.15,1.61-.06,2.26-.07.64.02,1.27,0,1.91.01l.12-.34.44-1.25s-.03,0-.05,0c-.81,0-1.62,0-2.43.02l-1.21.02c-.44,0-.87.05-1.29.14-1.83.43-3.43,1.78-4.05,3.59-.91,2.32,0,4.88,1.79,6.32h-.48c-2.93-.8-5.28-3.44-5.49-6.54-.35-3.49,2.22-6.93,5.58-7.56,1-.23,2.61-.1,3.64-.12.18,0,.35,0,.52,0,.91.01,2.95.01,3.86.01l.9-2.55c-.07-.02-.15-.02-.22-.02-.83,0-2.8,0-3.64.01-.48,0-.95,0-1.42,0l-1.96.02c-3.74-.05-7.38,2.45-8.61,6.03-1.43,3.76-.04,7.83,2.79,10.15-2.33-.79-4.38-2.36-5.7-4.46-3.85-6.05-.49-14.33,6.47-15.72.8-.17,1.6-.21,2.43-.21,2.4.03,7.85.05,10.3.06l1.3-3.7c-.08-.01-.17-.02-.26-.02-1.89.01-6.61,0-8.5.02-1.08.02-3.37.01-4.43.12-2.68.35-5.3,1.48-7.29,3.32-8.85,8.08-3.39,22.97,8.65,22.75h6.34l.34-1.61Z"/>
    </g>
  </g>
</svg>